<svg xmlns="http://www.w3.org/2000/svg" xml:space="preserve" viewBox="0 0 24 24" id="steering-wheel">
  <path fill="#303C42" d="M12 0C5.383 0 0 5.383 0 12s5.383 12 12 12 12-5.383 12-12S18.617 0 12 0zM9.188 20.555c-2.671-.875-4.788-2.983-5.663-5.8a5.102 5.102 0 0 1 4-.568 5.006 5.006 0 0 0 2.283 2.285c.12.439.192.888.192 1.342 0 .977-.284 1.921-.812 2.741zM8.086 8.926l-1.937.776a4.19 4.19 0 0 1-2.874.081C4.276 5.828 7.88 3 12 3c4.094 0 7.697 2.829 8.723 6.784a4.178 4.178 0 0 1-2.872-.082l-1.936-.775C14.998 7.763 13.593 7 12 7s-2.997.763-3.914 1.926zm6.72 11.62A5.047 5.047 0 0 1 14 17.814c0-.455.072-.905.192-1.342a5.007 5.007 0 0 0 2.282-2.284c1.407-.381 2.965-.123 4.083.61-.9 2.75-3.079 4.863-5.75 5.748z"></path>
  <circle cx="12" cy="12" r="4" fill="#5C6771"></circle>
  <path fill="#010101" d="M14.28 8.72A3.97 3.97 0 0 1 15 11c0 2.206-1.794 4-4 4a3.97 3.97 0 0 1-2.28-.72A3.994 3.994 0 0 0 12 16c2.206 0 4-1.794 4-4a3.994 3.994 0 0 0-1.72-3.28z" opacity=".1"></path>
  <path fill="#495966" d="M19.405 18.698a9.912 9.912 0 0 0 2.202-3.913.5.5 0 0 0-.138-.504l-.29-.262a6.113 6.113 0 0 0-4.305-.936c.078-.35.126-.71.126-1.083 0-.594-.122-1.157-.313-1.687l.793.318a5.148 5.148 0 0 0 1.918.369c.734 0 1.445-.152 2.115-.453a.5.5 0 0 0 .284-.559 10.026 10.026 0 0 0-2.4-4.68l.713-.714A10.944 10.944 0 0 1 23 12c0 2.853-1.101 5.447-2.889 7.404l-.706-.706z"></path>
  <path fill="#495966" d="M19.405 18.698a9.912 9.912 0 0 0 2.202-3.913.5.5 0 0 0-.138-.504l-.29-.262a6.113 6.113 0 0 0-4.305-.936c.078-.35.126-.71.126-1.083 0-.594-.122-1.157-.313-1.687l.793.318a5.148 5.148 0 0 0 1.918.369c.734 0 1.445-.152 2.115-.453a.5.5 0 0 0 .284-.559 10.026 10.026 0 0 0-2.4-4.68l.713-.714A10.944 10.944 0 0 1 23 12c0 2.853-1.101 5.447-2.889 7.404l-.706-.706z"></path>
  <path fill="#010101" d="M21.469 14.28c.033.031.044.075.067.112.021-.069.051-.133.071-.202a.5.5 0 0 0-.138-.504l-.29-.261c-1.234-.824-2.748-1.144-4.209-.942a5.404 5.404 0 0 1-.096.6 6.113 6.113 0 0 1 4.306.936l.289.262z" opacity=".1"></path>
  <path fill="#FFF" d="M17.48 11.227a5.148 5.148 0 0 0 1.918.369c.734 0 1.445-.153 2.115-.453a.5.5 0 0 0 .284-.559c-.017-.08-.047-.155-.066-.235a.494.494 0 0 1-.218.198c-.67.3-1.381.453-2.115.453-.66 0-1.305-.124-1.918-.37l-.793-.317c.078.217.135.443.187.671l.606.243z" opacity=".2"></path>
  <path fill="#495966" d="M10.926 16.877c.347.077.704.123 1.074.123.37 0 .727-.046 1.074-.123-.048.31-.074.623-.074.937 0 1.059.288 2.08.808 2.993A8.883 8.883 0 0 1 12 21a9.096 9.096 0 0 1-1.811-.187A6.033 6.033 0 0 0 11 17.814c0-.314-.026-.627-.074-.937zM19.403 3.887l-.716.717C16.893 2.98 14.534 2 12 2a9.995 9.995 0 0 0-6.698 2.595l-.706-.706A10.944 10.944 0 0 1 12 1c2.852 0 5.446 1.1 7.403 2.887zM3.889 4.596l.703.703a9.92 9.92 0 0 0-2.39 4.695.503.503 0 0 0 .307.563 5.194 5.194 0 0 0 4.012.074l.792-.318A4.942 4.942 0 0 0 7 12c0 .373.048.733.125 1.083a6.106 6.106 0 0 0-4.346.966l-.15.124a.5.5 0 0 0-.164.517 9.994 9.994 0 0 0 2.144 3.999l-.718.717A10.944 10.944 0 0 1 1 12c0-2.853 1.101-5.447 2.889-7.404z"></path>
  <path fill="#010101" d="m2.78 13.453-.151.125a.5.5 0 0 0-.164.516c.02.074.05.142.072.216.028-.048.048-.1.092-.137l.15-.124a6.106 6.106 0 0 1 4.346-.966 5.374 5.374 0 0 1-.096-.602 6.1 6.1 0 0 0-4.25.972z" opacity=".1"></path>
  <path fill="#FFF" d="M2.509 10.557a.507.507 0 0 1-.221-.173c-.01-.013-.011-.028-.019-.04-.019.082-.05.16-.067.244a.503.503 0 0 0 .307.563 5.194 5.194 0 0 0 4.012.074l.606-.243c.051-.227.108-.452.186-.669l-.792.318a5.194 5.194 0 0 1-4.012-.074z" opacity=".2"></path>
  <path fill="#495966" d="m4.598 20.113.706-.706C7.071 21.041 9.423 22 12 22c2.529 0 4.9-.971 6.7-2.593l.704.704A10.944 10.944 0 0 1 12 23c-2.852 0-5.446-1.1-7.402-2.887z"></path>
  <linearGradient id="a" x1="16.201" x2="18.594" y1="11.119" y2="13.512" gradientUnits="userSpaceOnUse">
    <stop offset="0" stop-color="#231F20" stop-opacity=".1"></stop>
    <stop offset="1" stop-color="#231F20" stop-opacity="0"></stop>
  </linearGradient>
  <path fill="url(#a)" d="M16.874 13.083a6.153 6.153 0 0 1 2.836.254l-3.023-3.024c.19.53.313 1.093.313 1.687 0 .373-.048.733-.126 1.083z"></path>
  <linearGradient id="b" x1="11.581" x2="13.347" y1="16.458" y2="18.224" gradientUnits="userSpaceOnUse">
    <stop offset="0" stop-color="#231F20" stop-opacity=".1"></stop>
    <stop offset="1" stop-color="#231F20" stop-opacity="0"></stop>
  </linearGradient>
  <path fill="url(#b)" d="M13 17.814c0-.314.026-.627.074-.937A4.976 4.976 0 0 1 12 17c-.37 0-.727-.046-1.074-.123l2.23 2.231A5.847 5.847 0 0 1 13 17.814z"></path>
  <linearGradient id="c" x1="8.375" x2="15.625" y1="10.31" y2="13.69" gradientUnits="userSpaceOnUse">
    <stop offset="0" stop-color="#FFF" stop-opacity=".2"></stop>
    <stop offset="1" stop-color="#FFF" stop-opacity="0"></stop>
  </linearGradient>
  <circle cx="12" cy="12" r="4" fill="url(#c)"></circle>
  <linearGradient id="d" x1="1.125" x2="22.875" y1="6.929" y2="17.071" gradientUnits="userSpaceOnUse">
    <stop offset="0" stop-color="#FFF" stop-opacity=".2"></stop>
    <stop offset="1" stop-color="#FFF" stop-opacity="0"></stop>
  </linearGradient>
  <path fill="url(#d)" d="M12 0C5.383 0 0 5.383 0 12s5.383 12 12 12 12-5.383 12-12S18.617 0 12 0zM9.188 20.555c-2.671-.875-4.788-2.983-5.663-5.8a5.102 5.102 0 0 1 4-.568 5.006 5.006 0 0 0 2.283 2.285c.12.439.192.888.192 1.342 0 .977-.284 1.921-.812 2.741zM8.086 8.926l-1.937.776a4.19 4.19 0 0 1-2.874.081C4.276 5.828 7.88 3 12 3c4.094 0 7.697 2.829 8.723 6.784a4.178 4.178 0 0 1-2.872-.082l-1.936-.775C14.998 7.763 13.593 7 12 7s-2.997.763-3.914 1.926zm6.72 11.62A5.047 5.047 0 0 1 14 17.814c0-.455.072-.905.192-1.342a5.007 5.007 0 0 0 2.282-2.284c1.407-.381 2.965-.123 4.083.61-.9 2.75-3.079 4.863-5.75 5.748z"></path>
</svg>
